<svg xmlns="http://www.w3.org/2000/svg" viewBox="0 0 128 128" width="128" height="128">
  <defs>
    <linearGradient id="wing-l" x1="0" y1="20" x2="55" y2="85" gradientUnits="userSpaceOnUse">
      <stop offset="0%" stop-color="#a3e635"/>
      <stop offset="45%" stop-color="#22c55e"/>
      <stop offset="100%" stop-color="#15803d"/>
    </linearGradient>
    <linearGradient id="wing-r" x1="73" y1="20" x2="128" y2="85" gradientUnits="userSpaceOnUse">
      <stop offset="0%" stop-color="#4ade80"/>
      <stop offset="50%" stop-color="#16a34a"/>
      <stop offset="100%" stop-color="#166534"/>
    </linearGradient>
  </defs>
  <!-- Left wing (3 overlapping leaves) -->
  <path d="M56 50 C44 30 20 10 4 22 C16 34 36 50 48 58 Z" fill="url(#wing-l)" opacity="0.72"/>
  <path d="M54 60 C38 44 12 30 0 46 C14 52 38 58 50 64 Z" fill="url(#wing-l)" opacity="0.88"/>
  <path d="M52 70 C34 58 8 48 0 64 C14 68 40 72 50 74 Z" fill="url(#wing-l)"/>
  <!-- Left leaf veins -->
  <path d="M4 22 C26 34 44 48 56 50" stroke="#0a5c2a" stroke-width="0.7" fill="none" opacity="0.35"/>
  <path d="M0 46 C22 50 42 58 54 60" stroke="#0a5c2a" stroke-width="0.7" fill="none" opacity="0.35"/>
  <path d="M0 64 C20 66 42 70 52 70" stroke="#0a5c2a" stroke-width="0.7" fill="none" opacity="0.35"/>
  <!-- Right wing (3 overlapping leaves) -->
  <path d="M72 50 C84 30 108 10 124 22 C112 34 92 50 80 58 Z" fill="url(#wing-r)" opacity="0.72"/>
  <path d="M74 60 C90 44 116 30 128 46 C114 52 90 58 78 64 Z" fill="url(#wing-r)" opacity="0.88"/>
  <path d="M76 70 C94 58 120 48 128 64 C114 68 88 72 78 74 Z" fill="url(#wing-r)"/>
  <!-- Right leaf veins -->
  <path d="M124 22 C102 34 84 48 72 50" stroke="#0a5c2a" stroke-width="0.7" fill="none" opacity="0.35"/>
  <path d="M128 46 C106 50 86 58 74 60" stroke="#0a5c2a" stroke-width="0.7" fill="none" opacity="0.35"/>
  <path d="M128 64 C108 66 86 70 76 70" stroke="#0a5c2a" stroke-width="0.7" fill="none" opacity="0.35"/>
  <!-- Dove body -->
  <ellipse cx="64" cy="68" rx="14" ry="17" fill="white"/>
  <!-- Dove head -->
  <circle cx="64" cy="46" r="11" fill="white"/>
  <!-- Neck -->
  <path d="M55 52 Q64 63 73 52" fill="white"/>
  <rect x="55" y="50" width="18" height="16" rx="5" fill="white"/>
  <!-- Tail -->
  <path d="M56 83 L64 96 L72 83 Q64 79 56 83Z" fill="#dcfce7"/>
  <!-- Eye -->
  <circle cx="64" cy="44" r="2.5" fill="#1a1a2e"/>
  <circle cx="65" cy="43.2" r="0.8" fill="white"/>
  <!-- Beak -->
  <path d="M61 50 L64 56 L67 50" fill="#f59e0b" stroke="#d97706" stroke-width="0.5"/>
</svg>
