<svg xmlns="http://www.w3.org/2000/svg" viewBox="0 0 128 128" width="128" height="128">
  <defs>
    <linearGradient id="wing-l" x1="10" y1="30" x2="60" y2="90" gradientUnits="userSpaceOnUse">
      <stop offset="0%" stop-color="#4ade80"/>
      <stop offset="100%" stop-color="#15803d"/>
    </linearGradient>
    <linearGradient id="wing-r" x1="68" y1="30" x2="118" y2="90" gradientUnits="userSpaceOnUse">
      <stop offset="0%" stop-color="#22c55e"/>
      <stop offset="100%" stop-color="#166534"/>
    </linearGradient>
  </defs>
  <path d="M58 58 C50 42 28 20 8 28 C18 38 30 52 42 60 Z" fill="url(#wing-l)" opacity="0.7"/>
  <path d="M56 64 C44 52 18 38 4 50 C16 56 36 62 50 66 Z" fill="url(#wing-l)" opacity="0.85"/>
  <path d="M54 70 C40 62 14 56 4 68 C16 70 38 72 50 72 Z" fill="url(#wing-l)"/>
  <path d="M70 58 C78 42 100 20 120 28 C110 38 98 52 86 60 Z" fill="url(#wing-r)" opacity="0.7"/>
  <path d="M72 64 C84 52 110 38 124 50 C112 56 92 62 78 66 Z" fill="url(#wing-r)" opacity="0.85"/>
  <path d="M74 70 C88 62 114 56 124 68 C112 70 90 72 78 72 Z" fill="url(#wing-r)"/>
  <path d="M52 62 L20 42" stroke="#16a34a" stroke-width="0.8" fill="none" opacity="0.4"/>
  <path d="M50 66 L12 54" stroke="#16a34a" stroke-width="0.8" fill="none" opacity="0.4"/>
  <path d="M76 62 L108 42" stroke="#16a34a" stroke-width="0.8" fill="none" opacity="0.4"/>
  <path d="M78 66 L116 54" stroke="#16a34a" stroke-width="0.8" fill="none" opacity="0.4"/>
  <ellipse cx="64" cy="68" rx="14" ry="16" fill="white"/>
  <circle cx="64" cy="48" r="11" fill="white"/>
  <path d="M56 54 Q64 62 72 54" fill="white"/>
  <rect x="56" y="52" width="16" height="14" rx="4" fill="white"/>
  <circle cx="64" cy="46" r="2.5" fill="#1a1a2e"/>
  <circle cx="65" cy="45" r="0.8" fill="white"/>
  <path d="M60 50 L64 55 L68 50" fill="#f59e0b" stroke="#d97706" stroke-width="0.5"/>
  <path d="M56 82 L64 90 L72 82 Q64 78 56 82 Z" fill="#dcfce7"/>
</svg>
