<svg xmlns="http://www.w3.org/2000/svg" viewBox="0 0 420 128" width="420" height="128">
  <defs>
    <linearGradient id="g" x1="0" y1="0" x2="128" y2="128" gradientUnits="userSpaceOnUse">
      <stop offset="0%" stop-color="#4ade80"/>
      <stop offset="100%" stop-color="#16a34a"/>
    </linearGradient>
    <linearGradient id="text-grad" x1="140" y1="30" x2="410" y2="100" gradientUnits="userSpaceOnUse">
      <stop offset="0%" stop-color="#22c55e"/>
      <stop offset="100%" stop-color="#16a34a"/>
    </linearGradient>
  </defs>

  <!--
    Concord Full Logo (icon + wordmark)

    Left side: The "C" speech-bubble icon with harmony arcs.
    Right side: "Concord" wordmark in a clean sans-serif font.
  -->

  <!-- === ICON (same as logo.svg) === -->
  <path fill="url(#g)" d="
    M 58,6
    C 89,6 114,22 120,48
    C 121,52 118,56 114,56
    C 110,56 107,53 106,50
    C 102,30 82,18 58,18
    C 28,18 10,38 10,59
    C 10,80 28,100 58,100
    C 82,100 102,88 106,68
    C 107,65 110,62 114,62
    C 118,62 121,66 120,70
    C 114,96 89,112 58,112
    L 42,112
    L 16,126
    L 22,108
    C 8,100 -2,82 -2,59
    C -2,28 22,6 58,6
    Z
  "/>

  <!-- Harmony wave 1 -->
  <path d="M 40,47 A 17,17 0 0 1 40,71" fill="none" stroke="#fff" stroke-width="6" stroke-linecap="round" opacity="0.95"/>
  <!-- Harmony wave 2 -->
  <path d="M 54,39 A 26,26 0 0 1 54,79" fill="none" stroke="#fff" stroke-width="5.5" stroke-linecap="round" opacity="0.6"/>
  <!-- Harmony wave 3 -->
  <path d="M 68,32 A 34,34 0 0 1 68,86" fill="none" stroke="#fff" stroke-width="5" stroke-linecap="round" opacity="0.3"/>

  <!-- === WORDMARK === -->
  <text
    x="140"
    y="80"
    font-family="'Inter', 'Segoe UI', 'Helvetica Neue', Arial, sans-serif"
    font-size="52"
    font-weight="700"
    letter-spacing="-1"
    fill="url(#text-grad)"
  >Concord</text>
</svg>